# xmcd
#
# Track frame offsets: 
#        150
#        11103
#        23135
#        36495
#        49505
#        65565
#        76728
#        88130
#        100373
#        113278
#        124360
#        136680
#        151988
#        161938
#        174328
#        186793
#        199995
#        208930
#        226483
#        240033
#        257005
#        269448
#        279735
#        291533
#        302275
#
# Disc length: 4187 seconds
#
# Revision: 0
# Processed by: cddbd v1.5.1PL2 Copyright (c) Steve Scherf et al.
# Submitted via: ExactAudioCopy v0.95b2
#
DISCID=60105919
DTITLE=Various Artist - 50 of the greatest Love Songs
DYEAR=1999
DGENRE=Blues
TTITLE0=Sea of love - Phil Phillips
TTITLE1=Smoke gets in your eyes - The Platters
TTITLE2=Higher and Higher - Jakie Wilson
TTITLE3=Tell Laura I love her - Ray Peterson
TTITLE4=Somethings gotten hold of my heart - Gene Pitney
TTITLE5=Rhythm of the rain - The Cascades
TTITLE6=Save the last dance for me - The Drifters
TTITLE7=June in January - Dean Martin
TTITLE8=Help me Rhonda - Jan and Dean
TTITLE9=Hurt - Timi Yuro
TTITLE10=You send me - Sam Cooke
TTITLE11=Rock my baby - George McCray
TTITLE12=Blue moon - The Marcels
TTITLE13=High Noon - Frankie Laine
TTITLE14=Twilight time - The Platters
TTITLE15=Ruby dont take your love to town - Kenny Rogers
TTITLE16=Groovy kind of love - Wayne Fontana
TTITLE17=Let your love flow - Solomon Burke
TTITLE18=Clair - Gilbert O'Sullivan
TTITLE19=Bue Bayou - Lynn Anderson
TTITLE20=My Prayer  - The Platters
TTITLE21=Kisses sweeter than wine - Jimmy Rogers
TTITLE22=Corina, Corina - Ray Peterson
TTITLE23=Dadoo Ron Ron - The Crystals
TTITLE24=SH Boom SH Boom - The Crewcuts
EXTD=
EXTT0=
EXTT1=
EXTT2=
EXTT3=
EXTT4=
EXTT5=
EXTT6=
EXTT7=
EXTT8=
EXTT9=
EXTT10=
EXTT11=
EXTT12=
EXTT13=
EXTT14=
EXTT15=
EXTT16=
EXTT17=
EXTT18=
EXTT19=
EXTT20=
EXTT21=
EXTT22=
EXTT23=
EXTT24=
PLAYORDER=
